<?xml version="1.0" encoding="UTF-8" standalone="no"?>
<!-- Generator: Adobe Illustrator 16.0.0, SVG Export Plug-In . SVG Version: 6.00 Build 0)  -->

<svg
   xmlns:dc="http://purl.org/dc/elements/1.1/"
   xmlns:cc="http://creativecommons.org/ns#"
   xmlns:rdf="http://www.w3.org/1999/02/22-rdf-syntax-ns#"
   xmlns:svg="http://www.w3.org/2000/svg"
   xmlns="http://www.w3.org/2000/svg"
   xmlns:sodipodi="http://sodipodi.sourceforge.net/DTD/sodipodi-0.dtd"
   xmlns:inkscape="http://www.inkscape.org/namespaces/inkscape"
   version="1.1"
   id="Layer_1"
   x="0px"
   y="0px"
   width="850.391px"
   height="850.39px"
   viewBox="0 0 850.391 850.39"
   enable-background="new 0 0 850.391 850.39"
   xml:space="preserve"
   inkscape:version="0.48.4 r9939"
   sodipodi:docname="bus booking logo with icons-01.svg"><metadata
     id="metadata51"><rdf:RDF><cc:Work
         rdf:about=""><dc:format>image/svg+xml</dc:format><dc:type
           rdf:resource="http://purl.org/dc/dcmitype/StillImage" /><dc:title></dc:title></cc:Work></rdf:RDF></metadata><defs
     id="defs49" /><sodipodi:namedview
     pagecolor="#ffffff"
     bordercolor="#666666"
     borderopacity="1"
     objecttolerance="10"
     gridtolerance="10"
     guidetolerance="10"
     inkscape:pageopacity="0"
     inkscape:pageshadow="2"
     inkscape:window-width="1366"
     inkscape:window-height="747"
     id="namedview47"
     showgrid="false"
     inkscape:zoom="0.39247215"
     inkscape:cx="851.2587"
     inkscape:cy="188.06096"
     inkscape:window-x="0"
     inkscape:window-y="21"
     inkscape:window-maximized="1"
     inkscape:current-layer="Layer_1" /><g
     id="g5"><path
       d="M786.117,431.975c0,198.906-161.254,360.166-360.174,360.166c-198.923,0-360.173-161.26-360.173-360.166   c0-198.928,161.25-360.18,360.173-360.18C624.863,71.794,786.117,233.046,786.117,431.975z"
       id="path7"
       fill="#F1F2F2" /><g
       id="g9"><path
         d="M426.178,0.653C191.134,0.653,0.639,191.176,0.639,426.2c0,235.011,190.495,425.54,425.539,425.54    c235.024,0,425.539-190.529,425.539-425.54C851.717,191.176,661.202,0.653,426.178,0.653z M426.178,764.455    c-186.801,0-338.24-151.436-338.24-338.255c0-186.812,151.439-338.254,338.24-338.254c186.8,0,338.268,151.442,338.268,338.254    C764.445,613.02,612.978,764.455,426.178,764.455z"
         id="path11"
         fill="#ED1C24" /></g><g
       id="g13"><path
         d="M248.317,614.383c6.606-2.541,11.257-9.173,11.257-16.262c0-13.549-14.465-18.596-23.58-18.596h-21.047    c-3.156,0-4.83,1.834-4.83,5.331v66.613c0,2.284,0.573,3.856,1.674,4.549c1.08,0.74,3.324,0.886,4.998,0.886h25.629    c13.176,0,23.498-9.615,23.498-21.911C265.916,625.48,258.135,616.495,248.317,614.383z M218.893,611.642v-23.843h16.436    c7.285,0,15.037,4.161,15.037,11.88c0,8.26-8.877,11.963-17.641,11.963H218.893z M256.152,635.11    c0,9.34-8.529,13.521-16.989,13.521h-20.271v-29.229h16.436C245.672,619.402,256.152,624.789,256.152,635.11z"
         id="path15" /><path
         d="M309.067,576.936c-24.063,0-35.04,20.915-35.04,40.349c0,20.209,12.049,40.666,35.04,40.666    c24.45,0,35.59-20.929,35.59-40.348C344.657,598.011,333.518,576.936,309.067,576.936z M309.301,649.774    c-17.979,0-26.162-16.948-26.162-32.698c0-15.244,8.127-31.659,25.929-31.659c18.116,0,26.378,16.844,26.378,32.483    C335.445,633.262,327.254,649.774,309.301,649.774z"
         id="path17" /><path
         d="M388.371,576.936c-24.079,0-35.039,20.915-35.039,40.349c0,20.209,12.033,40.666,35.039,40.666    c24.45,0,35.578-20.929,35.578-40.348C423.949,598.011,412.821,576.936,388.371,576.936z M388.594,649.774    c-17.969,0-26.154-16.948-26.154-32.698c0-15.244,8.123-31.659,25.932-31.659c18.109,0,26.361,16.844,26.361,32.483    C414.732,633.262,406.551,649.774,388.594,649.774z"
         id="path19" /><path
         d="M487.135,649.58l-25.129-38.775l23.232-24.121c0.811-0.657,1.217-1.564,1.217-2.658c0-2.313-2.353-4.5-4.822-4.5    c-1.197,0-2.154,0.36-2.771,1.038l-37.459,39.247v-36.927c0-1.627-0.776-3.572-4.503-3.572c-2.829,0-4.285,1.196-4.285,3.572    v70.345c0,2.374,1.6,3.676,4.508,3.676c3.531,0,4.28-2,4.28-3.676v-22.021l14.203-14.192l24.556,38.125    c1.088,1.136,1.936,1.869,3.984,1.869c1.264,0,4.389-1.468,4.389-4.188C488.535,652.343,488.422,650.702,487.135,649.58z"
         id="path21" /><path
         d="M499.402,579.312c-2.833,0-4.276,1.411-4.276,4.188v69.218c0,2.783,1.443,4.188,4.276,4.188    c2.923,0,4.39-1.404,4.39-4.188v-69.218C503.792,580.723,502.325,579.312,499.402,579.312z"
         id="path23" /><path
         d="M570.199,579.415c-2.805,0-4.279,1.488-4.279,4.299v58.057l-41.9-58.569c-1.842-2.624-3.784-3.89-5.958-3.89    c-1.954,0-4.288,0.852-4.288,4.914v68.395c0,2.811,1.525,4.284,4.404,4.284c2.791,0,4.277-1.474,4.277-4.284v-57.338    l42.114,58.376c1.585,2.152,3.513,3.246,5.725,3.246c1.958,0,4.292-0.851,4.292-4.922v-68.269    C574.586,580.903,573.072,579.415,570.199,579.415z"
         id="path25" /><path
         d="M646.004,612.369H622.33c-3.637,0-5.471,1.404-5.471,4.188c0,1.87,0.887,4.086,5.151,4.086h22.284    c0.133,0.02,0.176,0.027,0.16,0.789l-0.012,0.407c0,16.207-9.725,27.52-23.623,27.52c-17.543,0-26.709-16.345-26.709-32.489    c0-19.821,10.223-31.667,27.346-31.667c6.59,0,12.744,2.451,18.319,7.283c0.87,0.727,2.7,1.73,4.042,1.73    c2.854,0,4.609-2.437,4.609-4.7c0-1.197-0.656-2.444-1.951-3.677c-7.254-7.109-17.777-9.63-24.575-9.63    c-22.753,0-37.437,15.992-37.437,40.764c0,20.416,12.331,41.082,35.911,41.082c19.108,0,32.96-15.189,32.96-36.104    C653.336,617.312,652.762,612.369,646.004,612.369z"
         id="path27" /></g><g
       id="g29"><path
         d="M716.856,372.055c-0.348-1.876-0.858-3.704-1.55-5.42c-0.366-0.921-0.775-1.8-1.225-2.624    c-0.578-1.053-1.24-2.063-1.932-3.004c-0.64-0.831-1.346-1.606-2.107-2.326c-0.594-0.582-1.244-1.128-1.939-1.634    c-0.994-0.728-2.048-1.371-3.184-1.883c-0.745-0.367-1.568-0.637-2.389-0.893c-1.85-0.554-3.871-0.872-6.055-0.872H692.5h-6.201    h-7.327h-511.46c-2.119,0-3.988,0.014-5.697,0.146c-1.682,0.104-3.219,0.304-4.541,0.644c-0.91,0.229-1.754,0.54-2.529,0.976    c-0.844,0.436-1.604,1.032-2.256,1.772c-0.804,0.886-1.447,2.007-1.955,3.406c-0.456,1.17-0.789,2.541-1.041,4.12    c-0.258,1.62-0.426,3.482-0.492,5.601c-0.043,1.135-0.086,2.367-0.086,3.641v30.122v28.89l-4.444,4.493l-6.521,6.473v9.264v39.17    v7.173c0,1.772,0.305,3.517,0.871,5.247c0.428,1.191,0.955,2.354,1.607,3.489c0.787,1.393,1.717,2.728,2.809,3.988    c1.082,1.288,2.33,2.513,3.645,3.642c1.323,1.108,2.764,2.133,4.23,3.073c1.6,0.99,3.289,1.869,5.018,2.597    c2.002,0.838,4.07,1.475,6.142,1.897c1.736,0.373,3.509,0.532,5.241,0.532h8.666h68.471c-0.428-2.153-0.775-3.794-1.033-5.22    c-0.492-2.389-0.741-4.078-0.741-6.41c0-2.175,0.211-4.251,0.581-6.279c0.348-1.828,0.84-3.614,1.448-5.317    c0.784-2.111,1.717-4.161,2.868-6.105c1.307-2.237,2.914-4.341,4.686-6.238c1.564-1.669,3.309-3.24,5.205-4.625    c1.912-1.412,4.004-2.645,6.217-3.689c2.134-1.025,4.35-1.814,6.688-2.402c2.969-0.776,6.106-1.163,9.307-1.163    c3.523,0,6.91,0.491,10.133,1.363c2.742,0.803,5.346,1.883,7.777,3.199c2.648,1.46,5.131,3.205,7.34,5.213    c1.791,1.668,3.434,3.468,4.873,5.428c2.174,2.942,3.883,6.237,5.107,9.733c0.414,1.344,0.824,2.693,1.092,4.084    c0.465,2.292,0.73,4.625,0.73,7.015c0,2.117-0.211,3.606-0.589,5.586c-0.285,1.482-0.679,3.296-1.187,5.829h231.303    c-0.348-1.661-0.617-3.046-0.848-4.236c-0.609-2.922-0.896-4.756-0.896-7.394c0-3.151,0.429-6.183,1.209-9.063    c0.5-1.877,1.17-3.677,1.982-5.421c0.896-1.925,1.943-3.809,3.164-5.539c1.343-1.883,2.821-3.6,4.457-5.199    c1.357-1.314,2.781-2.533,4.334-3.606c1.994-1.433,4.113-2.666,6.396-3.704c2.262-0.99,4.658-1.821,7.133-2.374    c2.699-0.603,5.48-0.914,8.318-0.914c3.289,0,6.523,0.422,9.541,1.246c2.59,0.658,5.041,1.627,7.358,2.789    c2.665,1.372,5.116,3.005,7.375,4.909c2.243,1.925,4.214,4.07,5.954,6.438c1.19,1.669,2.271,3.406,3.168,5.234    c0.73,1.439,1.304,2.907,1.803,4.451c0.582,1.724,1.039,3.489,1.354,5.324c0.285,1.855,0.472,3.718,0.472,5.643    c0,2.506-0.304,4.14-0.814,6.729c-0.25,1.253-0.582,2.763-0.945,4.687h2.049l98.365-27.886V395.192v-8.827v-4.583v-3.967    C717.383,375.876,717.188,373.924,716.856,372.055z M217.273,393.101v8.688V446v45.063v7.068v3.995    c0,0.36-0.027,0.733-0.055,1.059c-0.063,0.367-0.137,0.699-0.25,1.039c-0.07,0.311-0.195,0.623-0.305,0.872    c-0.145,0.312-0.305,0.588-0.472,0.845c-0.152,0.208-0.343,0.422-0.503,0.567c-0.215,0.256-0.473,0.479-0.734,0.678    c-0.242,0.111-0.479,0.223-0.725,0.313c-0.277,0.069-0.57,0.117-0.832,0.117h-3.074h-6.248h-10.922H181.23h-5.127h-2.084    c-0.23,0-0.445-0.021-0.625-0.048c-0.249-0.069-0.445-0.125-0.635-0.243c-0.23-0.097-0.457-0.242-0.668-0.394    c-0.234-0.222-0.457-0.423-0.663-0.673c-0.207-0.262-0.409-0.532-0.562-0.851c-0.145-0.312-0.281-0.616-0.379-0.983    c-0.141-0.339-0.223-0.699-0.293-1.045c-0.066-0.423-0.109-0.823-0.109-1.253v-4.515v-7.317v-43.608V399.83v-7.594v-2.645    c0-0.339,0.043-0.679,0.043-0.99c0.094-0.409,0.18-0.796,0.27-1.19c0.145-0.374,0.27-0.748,0.438-1.06    c0.172-0.346,0.37-0.624,0.58-0.907c0.219-0.249,0.441-0.505,0.676-0.692c0.16-0.118,0.336-0.222,0.516-0.319    c0.207-0.117,0.429-0.221,0.663-0.284c0.233-0.048,0.499-0.09,0.749-0.09h2.755h4.569h11.811h13.381h4.994h1.869    c0.262,0,0.555,0.042,0.832,0.131c0.287,0.083,0.537,0.222,0.799,0.388c0.188,0.118,0.348,0.243,0.5,0.429    c0.207,0.152,0.4,0.353,0.553,0.568c0.18,0.256,0.313,0.512,0.449,0.741c0.133,0.305,0.285,0.609,0.383,0.941    c0.125,0.346,0.223,0.727,0.262,1.094c0.07,0.401,0.098,0.803,0.098,1.239V393.101z M335.757,392.845v4.604v11.818v13.403v5.026    v1.842c0,0.284-0.031,0.562-0.091,0.845c-0.092,0.284-0.174,0.533-0.338,0.796c-0.07,0.193-0.223,0.36-0.328,0.526    c-0.152,0.222-0.285,0.366-0.465,0.526c-0.18,0.193-0.375,0.318-0.593,0.484c-0.249,0.139-0.472,0.263-0.722,0.374    c-0.262,0.104-0.582,0.193-0.913,0.276c-0.269,0.049-0.608,0.091-0.913,0.091h-2.841h-6.895h-35.091h-35.781h-5.588h-3.148    c-0.297,0-0.59-0.042-0.866-0.091c-0.281-0.048-0.565-0.11-0.8-0.229c-0.266-0.097-0.516-0.187-0.723-0.317    c-0.257-0.152-0.449-0.319-0.678-0.485c-0.164-0.152-0.316-0.318-0.457-0.456c-0.223-0.264-0.375-0.507-0.477-0.776    c-0.125-0.256-0.215-0.498-0.277-0.72c-0.062-0.283-0.104-0.561-0.104-0.845v-3.073v-6.238v-10.959v-11.915v-5.165v-2.056    c0-0.243,0.016-0.45,0.07-0.644c0.034-0.214,0.097-0.409,0.144-0.623c0.105-0.222,0.207-0.45,0.34-0.672    c0.152-0.222,0.332-0.45,0.539-0.658c0.195-0.214,0.437-0.388,0.644-0.554c0.245-0.173,0.522-0.318,0.804-0.415    c0.242-0.111,0.527-0.201,0.812-0.256c0.339-0.077,0.663-0.104,1.03-0.104h3.559h5.795h34.63h37.205h6.028h2.127    c0.25,0,0.504,0.021,0.741,0.027c0.34,0.077,0.655,0.16,0.933,0.271c0.328,0.118,0.609,0.256,0.874,0.422    c0.234,0.193,0.511,0.374,0.718,0.574c0.188,0.215,0.367,0.437,0.527,0.692c0.098,0.16,0.168,0.333,0.266,0.492    c0.094,0.229,0.164,0.457,0.213,0.699c0.06,0.222,0.091,0.484,0.091,0.748V392.845z M456.68,392.845v4.604v11.818v13.403v5.026    v1.842c0,0.284-0.063,0.562-0.117,0.845c-0.082,0.284-0.18,0.533-0.305,0.796c-0.098,0.193-0.215,0.36-0.352,0.526    c-0.12,0.222-0.284,0.366-0.463,0.526c-0.176,0.193-0.375,0.318-0.57,0.484c-0.227,0.139-0.5,0.263-0.719,0.374    c-0.319,0.104-0.607,0.193-0.881,0.276c-0.324,0.049-0.656,0.091-0.987,0.091h-2.79h-6.898H407.48h-35.75h-5.589h-3.181    c-0.276,0-0.58-0.042-0.861-0.091c-0.277-0.048-0.535-0.11-0.797-0.229c-0.249-0.097-0.488-0.187-0.729-0.317    c-0.215-0.152-0.449-0.319-0.656-0.485c-0.152-0.152-0.32-0.318-0.445-0.456c-0.214-0.264-0.379-0.507-0.519-0.776    c-0.089-0.256-0.187-0.498-0.269-0.72c-0.07-0.283-0.07-0.561-0.07-0.845v-3.073v-6.238v-10.959v-11.915v-5.165v-2.056    c0-0.243,0-0.45,0.043-0.644c0.027-0.214,0.098-0.409,0.152-0.623c0.108-0.222,0.214-0.45,0.347-0.672    c0.137-0.222,0.331-0.45,0.522-0.658c0.168-0.214,0.445-0.388,0.68-0.554c0.215-0.173,0.483-0.318,0.775-0.415    c0.262-0.111,0.527-0.201,0.84-0.256c0.309-0.077,0.644-0.104,0.986-0.104h3.574h5.803h34.607h37.197h6.035h2.108    c0.245,0,0.522,0.021,0.772,0.027c0.313,0.077,0.651,0.16,0.929,0.271c0.319,0.118,0.601,0.256,0.858,0.422    c0.266,0.193,0.484,0.374,0.706,0.574c0.207,0.215,0.386,0.437,0.562,0.692c0.082,0.16,0.16,0.333,0.27,0.492    c0.07,0.229,0.152,0.457,0.207,0.699c0.027,0.222,0.09,0.484,0.09,0.748V392.845z M575.405,392.845v4.604v11.818v13.403v5.026    v1.842c0,0.284-0.043,0.562-0.113,0.845c-0.065,0.284-0.179,0.533-0.315,0.796c-0.086,0.193-0.195,0.36-0.348,0.526    c-0.09,0.222-0.285,0.366-0.457,0.526c-0.152,0.193-0.375,0.318-0.581,0.484c-0.222,0.139-0.472,0.263-0.706,0.374    c-0.305,0.104-0.598,0.193-0.902,0.276c-0.312,0.049-0.635,0.091-0.982,0.091h-2.782h-6.895h-35.114h-35.758h-5.588h-3.164    c-0.281,0-0.574-0.042-0.862-0.091c-0.306-0.048-0.554-0.11-0.804-0.229c-0.266-0.097-0.48-0.187-0.707-0.317    c-0.265-0.152-0.464-0.319-0.678-0.485c-0.168-0.152-0.332-0.318-0.457-0.456c-0.223-0.264-0.359-0.507-0.5-0.776    c-0.074-0.256-0.195-0.498-0.258-0.72c-0.093-0.283-0.108-0.561-0.108-0.845v-3.073v-6.238v-10.959v-11.915v-5.165v-2.056    c0-0.243,0.016-0.45,0.054-0.644c0.043-0.214,0.105-0.409,0.152-0.623c0.117-0.222,0.203-0.45,0.34-0.672    c0.145-0.222,0.32-0.45,0.543-0.658c0.164-0.214,0.413-0.388,0.647-0.554c0.265-0.173,0.515-0.318,0.819-0.415    c0.242-0.111,0.52-0.201,0.788-0.256c0.331-0.077,0.69-0.104,1.03-0.104h3.555h5.807h34.621h37.215h6H571    c0.277,0,0.52,0.021,0.792,0.027c0.308,0.077,0.62,0.16,0.94,0.271c0.297,0.118,0.582,0.256,0.843,0.422    c0.272,0.193,0.487,0.374,0.706,0.574c0.215,0.215,0.402,0.437,0.555,0.692c0.105,0.16,0.188,0.333,0.277,0.492    c0.078,0.229,0.166,0.457,0.206,0.699c0.043,0.222,0.086,0.484,0.086,0.748V392.845z M691.961,392.845v4.604v11.818v13.403v5.026    v1.842c0,0.284-0.051,0.562-0.108,0.845c-0.098,0.284-0.195,0.533-0.321,0.796c-0.088,0.193-0.201,0.36-0.346,0.526    c-0.137,0.222-0.289,0.366-0.469,0.526c-0.168,0.193-0.375,0.318-0.57,0.484c-0.241,0.139-0.465,0.263-0.732,0.374    c-0.305,0.104-0.57,0.193-0.895,0.276c-0.284,0.049-0.643,0.091-0.963,0.091h-2.817h-6.872h-35.109h-35.77H601.4h-3.164    c-0.289,0-0.594-0.042-0.867-0.091c-0.276-0.048-0.546-0.11-0.807-0.229c-0.258-0.097-0.484-0.187-0.695-0.317    c-0.27-0.152-0.469-0.319-0.675-0.485c-0.168-0.152-0.335-0.318-0.46-0.456c-0.215-0.264-0.379-0.507-0.52-0.776    c-0.102-0.256-0.188-0.498-0.254-0.72c-0.043-0.283-0.086-0.561-0.086-0.845v-3.073v-6.238v-10.959v-11.915v-5.165v-2.056    c0-0.243,0-0.45,0.07-0.644c0.016-0.214,0.082-0.409,0.168-0.623c0.063-0.222,0.188-0.45,0.313-0.672    c0.145-0.222,0.34-0.45,0.503-0.658c0.202-0.214,0.444-0.388,0.671-0.554c0.27-0.173,0.52-0.318,0.797-0.415    c0.25-0.111,0.553-0.201,0.838-0.256c0.297-0.077,0.645-0.104,1.004-0.104h3.559h5.816h34.627h37.178h6.029h2.111    c0.258,0,0.515,0.021,0.783,0.027c0.313,0.077,0.617,0.16,0.949,0.271c0.262,0.118,0.581,0.256,0.83,0.422    c0.277,0.193,0.492,0.374,0.719,0.574c0.195,0.215,0.398,0.437,0.563,0.692c0.089,0.16,0.144,0.333,0.241,0.492    c0.086,0.229,0.168,0.457,0.211,0.699c0.073,0.222,0.108,0.484,0.108,0.748V392.845z"
         id="path31" /><path
         d="M401.919,487.732c0,6.134-4.964,11.112-11.097,11.112c-6.127,0-11.105-4.979-11.105-11.112s4.979-11.118,11.105-11.118    C396.955,476.614,401.919,481.599,401.919,487.732z"
         id="path33" /><path
         d="M280.411,481.495c-17.859,0-32.336,14.462-32.336,32.316c0,17.848,14.477,32.324,32.336,32.324    c17.836,0,32.297-14.477,32.297-32.324C312.708,495.957,298.247,481.495,280.411,481.495z M280.411,530.988    c-9.497,0-17.181-7.692-17.181-17.177c0-9.47,7.684-17.169,17.181-17.169c9.47,0,17.169,7.699,17.169,17.169    C297.58,523.296,289.881,530.988,280.411,530.988z"
         id="path35" /><path
         d="M581.871,481.495c-17.848,0-32.316,14.462-32.316,32.316c0,17.848,14.469,32.324,32.316,32.324    s32.305-14.477,32.305-32.324C614.176,495.957,599.719,481.495,581.871,481.495z M581.871,530.988    c-9.486,0-17.185-7.692-17.185-17.177c0-9.47,7.698-17.169,17.185-17.169c9.477,0,17.152,7.699,17.152,17.169    C599.023,523.296,591.348,530.988,581.871,530.988z"
         id="path37" /></g><g
       id="g39"><path
         d="M311.357,236.127c13.673-5.254,23.318-19.017,23.318-33.75c0-28.066-29.861-38.52-48.669-38.52h-43.464    c-6.51,0-9.943,3.814-9.943,11.021v138.17c0,4.701,1.197,7.961,3.449,9.395c1.779,1.211,5.346,1.841,10.316,1.841h52.928    c27.166,0,48.447-19.945,48.447-45.402C347.74,259.112,331.656,240.489,311.357,236.127z M250.686,230.464v-49.507h33.963    c15.039,0,31.045,8.646,31.045,24.639c0,17.176-18.305,24.868-36.438,24.868H250.686z M327.633,279.092    c0,19.406-17.637,28.087-35.105,28.087h-41.842v-60.674h33.963C306.012,246.505,327.633,257.7,327.633,279.092z"
         id="path41" /><path
         d="M488.449,163.622c-6.52,0-9.953,3.455-9.953,9.956v87.037c0,32.206-13.868,47.208-43.652,47.208    c-30.607,0-46.125-15.889-46.125-47.208v-87.037c0-6.598-3.27-9.956-9.716-9.956c-6.513,0-9.954,3.455-9.954,9.956v88.754    c0,22.333,6.321,39.184,18.769,50.067c10.812,9.45,25.96,14.262,44.997,14.262c24.497,0,65.577-8.371,65.577-64.329v-88.754    C498.392,167.077,494.946,163.622,488.449,163.622z"
         id="path43" /><path
         d="M583.572,236.418l-1.799-0.935c-2.244-1.149-4.479-2.271-6.672-3.393c-16.186-8.148-31.467-15.847-31.467-27.561    c0-14.171,12.779-26.142,27.885-26.142c11.167,0,24.07,3.033,31.383,7.415l1.178,0.72c2.783,1.745,5.191,3.254,7.754,3.254    c5.377,0,8.596-4.625,8.596-9.104c0-4.264-2.488-8.197-6.691-10.509c-12.568-6.529-25.913-9.97-38.609-9.97    c-30.721,0-51.386,18.166-51.386,45.201c0,22.521,24.703,34.768,46.477,45.588l0.769,0.38    c17.169,8.605,33.381,16.748,33.381,29.236c0,25.345-24.859,28.08-35.551,28.08c-9.918,0-20.98-3.019-29.564-8.052    c-2.756-1.758-5.623-2.693-8.254-2.693c-5.553,0-8.377,2.7-8.377,8.031c0,3.897,2.217,7.373,6.411,10.059    c11.671,7.193,24.824,10.834,39.109,10.834c33.954,0,55.888-18.581,55.888-47.333C624.031,257.402,603.465,246.74,583.572,236.418    z"
         id="path45" /></g></g></svg>